<svg xmlns="http://www.w3.org/2000/svg" fill="none" viewBox="37.68 41.14 188.01 56.6">
<g clip-path="url(#clip0_20_663)">
<path d="M50.4291 79.5862L48.2619 80.2503C46.8736 80.678 45.6544 81.5301 44.776 82.6871C43.8978 83.8441 43.4047 85.2472 43.3663 86.6995H40.7246V90.283H53.0662V86.6995H50.4291V79.5862Z" fill="#0F3F7F"/>
<path d="M69.4388 75.8911L66.9549 76.6418C65.5278 77.0714 64.2778 77.95 63.3888 79.1457C62.5006 80.3415 62.0206 81.7925 62.0199 83.2822V86.7042H59.5586V90.2831H71.9001V86.6996H69.4388V75.8911Z" fill="#0F3F7F"/>
<path d="M88.228 72.2429L85.9469 72.9277C84.5251 73.3605 83.2802 74.2391 82.3951 75.4336C81.5107 76.6281 81.0333 78.0752 81.0333 79.5617V86.6905H78.4551V90.283H90.7966V86.6995H88.228V72.2429Z" fill="#0F3F7F"/>
<path d="M37.6816 71.1572C38.7002 71.1765 39.6957 71.464 40.5673 71.9912C41.439 72.5183 42.156 73.2664 42.6456 74.1592H40.6678V77.7433H53.0071V74.1592H50.4292V72.4279C50.43 71.0538 50.9185 69.7249 51.8081 68.6777C52.6977 67.6305 53.9303 66.9335 55.2863 66.7113C56.6416 66.4884 58.0325 66.7545 59.2108 67.4619C60.3885 68.1693 61.2768 69.2721 61.7167 70.5731H59.5771V74.1547H71.9186V70.5731H69.4392V68.2559C69.4366 66.8269 69.9619 65.4483 70.9141 64.383C71.867 63.3184 73.179 62.6426 74.599 62.4863C76.0189 62.33 77.4466 62.704 78.6075 63.5354C79.769 64.3675 80.5824 65.5995 80.8905 66.9942H78.4861V70.5731H90.8282V66.9942H88.2274V64.0833C88.2274 63.3222 88.3772 62.5683 88.6686 61.8655C88.9599 61.162 89.387 60.523 89.9251 59.9849C90.4632 59.4468 91.1028 59.0204 91.8057 58.7291C92.5092 58.4383 93.2631 58.2885 94.0241 58.2891V51.0137L37.6816 61.9979V71.1572Z" fill="#0F3F7F"/>
<path d="M50.3618 55.1591C51.1948 53.1487 50.2399 50.8443 48.2297 50.0116C46.2195 49.1789 43.9148 50.1337 43.0822 52.1435C42.2495 54.1539 43.2041 56.4582 45.2143 57.291C47.2246 58.1237 49.5292 57.1695 50.3618 55.1591Z" fill="#0F3F7F"/>
<path d="M68.5185 52.0337C70.0567 50.4949 70.0567 48.0006 68.5185 46.4625C66.9797 44.9236 64.4854 44.9236 62.9466 46.4625C61.4084 48.0006 61.4084 50.4949 62.9466 52.0337C64.4854 53.5725 66.9797 53.5725 68.5185 52.0337Z" fill="#0F3F7F"/>
<path d="M88.1493 46.5844C88.982 44.574 88.0272 42.2696 86.0168 41.4369C84.007 40.6042 81.702 41.559 80.8693 43.5688C80.0366 45.5792 80.9914 47.8835 83.0018 48.7162C85.0122 49.549 87.3165 48.5948 88.1493 46.5844Z" fill="#0F3F7F"/>
<path d="M120.219 68.1253H127.477V65.4289L125.306 65.4017V65.3559L124.599 52.8548H126.825V50.0989H120.438L116.972 58.6425C116.683 59.4022 115.9 61.9184 115.9 61.9184H115.558C115.558 61.9184 114.771 59.4086 114.483 58.6425L111.025 50.0989H104.606V52.8548H106.834L106.045 65.4017L103.871 65.4289V68.1253H111.128V65.4289L109.453 65.4017L110.128 55.7451H110.286L114.463 66.7112H116.925L121.078 55.7451H121.209L121.893 65.4134L120.214 65.4405L120.219 68.1253Z" fill="white"/>
<path d="M129.885 63.6201C129.885 63.8998 129.902 64.1795 129.935 64.4573C130.075 65.6234 130.519 66.6086 131.304 67.2882C132.048 67.9316 133.088 68.3102 134.452 68.3102C137.831 68.3102 138.538 65.9012 138.538 65.9012H138.62V68.1254H143.155V65.4018H141.476V55.8911H136.617V58.6154H138.139V63.9076C137.96 64.4244 137.62 64.8701 137.167 65.1776C136.715 65.4851 136.176 65.6382 135.629 65.6137C134.194 65.6137 133.492 64.9295 133.287 63.8048C133.24 63.5361 133.217 63.2635 133.218 62.9909V55.8911H128.211V58.6154H129.885V63.6201Z" fill="white"/>
<path d="M151.419 61.0541C150.68 60.919 149.964 60.8254 149.389 60.6639C148.631 60.4513 148.118 60.1367 148.118 59.4797C148.118 58.5126 149.06 58.0656 150.134 58.0656C151.629 58.0656 152.281 58.6425 152.281 59.6619V60.098L155.32 59.5049V59.167C155.32 57.3311 154.01 55.6792 149.977 55.6792C146.494 55.6792 144.815 57.4331 144.815 59.3725C144.785 60.107 145.004 60.8305 145.435 61.4255C146.327 62.5961 148.024 62.9198 149.505 63.1937C150 63.2802 150.472 63.3603 150.888 63.4605C151.752 63.6724 152.364 63.9644 152.364 64.5303C152.364 65.3197 151.837 65.9173 150.082 65.9173C148.455 65.9173 147.696 65.2648 147.696 64.2977V64.0858L144.635 64.6808V64.8953C144.635 66.6292 146.003 68.3037 150.167 68.3037C154.145 68.3037 155.667 66.7067 155.667 64.715C155.698 63.9721 155.461 63.2428 154.996 62.662C154.246 61.7472 152.908 61.3435 151.419 61.0541Z" fill="white"/>
<path d="M158.547 63.4352C158.547 66.6588 160.014 68.3101 163.078 68.3101C164.08 68.321 165.075 68.1537 166.018 67.8152V65.0367C166.018 65.0367 165.334 65.4017 163.794 65.4017C162.458 65.4017 161.883 64.5916 161.883 63.2278V58.4576H165.838V55.891H161.878V52.4348L158.547 53.0873V55.891H156.846V58.4576H158.547V63.4352Z" fill="white"/>
<path d="M173.059 61.2335C169.409 61.2335 167.377 62.4952 167.377 64.722C167.377 66.8687 169.028 68.31 171.592 68.31C175.158 68.31 175.89 66.1639 175.89 66.1639H175.968V68.1252H180.186V65.4016H178.817V60.5016C178.817 57.1255 176.486 55.7107 173.155 55.7107C171.218 55.7107 169.891 56.1855 169.037 56.838C168.641 57.1132 168.314 57.4763 168.083 57.9C167.852 58.3232 167.723 58.7948 167.705 59.2767V59.5364L170.639 60.1094V59.8807C170.639 59.7935 170.648 59.7063 170.666 59.621C170.805 58.8523 171.579 58.2521 173.025 58.2521C174.649 58.2521 175.486 58.9369 175.486 60.351V61.2361L173.059 61.2335ZM175.495 64.4274C175.162 64.8764 174.727 65.2407 174.227 65.4907C173.726 65.7408 173.174 65.87 172.614 65.8667C171.49 65.8667 170.676 65.2924 170.676 64.4507C170.676 63.4558 171.777 62.9836 173.413 62.9836H175.507L175.495 64.4274Z" fill="white"/>
<path d="M193.544 55.8911H190.656V57.8052H190.574C190.574 57.8052 189.504 55.7063 186.591 55.7063C183.527 55.7063 181.195 57.5933 181.195 61.9959C181.195 66.2118 183.607 68.3101 186.67 68.3101C188.952 68.3101 189.962 67.2177 190.199 66.9005V72.4963V72.7088H187.729V75.446H195.218V72.7088H193.539L193.544 55.8911ZM190.218 64.6149C189.824 65.0367 189.066 65.6136 187.677 65.6136C185.893 65.6136 184.508 64.4346 184.508 62.0231C184.508 59.6644 185.736 58.4073 187.729 58.4073C188.881 58.4073 189.851 59.0326 190.218 59.6644V64.6149Z" fill="white"/>
<path d="M203.869 55.7063C201.588 55.7063 200.569 56.8084 200.333 57.1211V53.5919V48.573H195.328V51.2966H197.003V68.1163H199.882V66.2028H199.959C199.959 66.2028 201.034 68.3011 203.942 68.3011C207.006 68.3011 209.338 66.4147 209.338 62.014C209.342 57.7981 206.935 55.7063 203.869 55.7063ZM202.823 65.6369C201.643 65.6369 200.671 64.9844 200.333 64.3526V60.4016V59.3951C200.698 58.9758 201.485 58.3731 202.87 58.3731C204.654 58.3731 206.044 59.5798 206.044 61.9888C206.044 64.3526 204.812 65.6369 202.823 65.6369Z" fill="white"/>
<path d="M216.233 55.8911H211.229V58.6154H212.908V65.4018H211.229V68.1254H217.755V65.4018H216.233V55.8911Z" fill="white"/>
<path d="M214.423 53.6371C214.886 53.6429 215.339 53.5105 215.726 53.2579C216.113 53.0047 216.416 52.6429 216.597 52.2172C216.778 51.7914 216.828 51.3224 216.741 50.8683C216.654 50.4141 216.434 49.9962 216.109 49.6673C215.784 49.3385 215.369 49.1137 214.916 49.0213C214.463 48.9289 213.993 48.9735 213.565 49.1492C213.137 49.325 212.772 49.6241 212.515 50.0078C212.257 50.3915 212.12 50.8437 212.119 51.3056C212.12 51.9194 212.363 52.5072 212.794 52.9433C213.225 53.38 213.81 53.6287 214.423 53.6371Z" fill="white"/>
<path d="M224.173 65.4017V48.582H219.195V51.3056H220.842V65.4017H219.195V68.1254H225.69V65.4017H224.173Z" fill="white"/>
<path d="M116.158 81.0922V80.9346C116.92 80.6723 118.881 79.9927 118.881 77.0566C118.881 73.7806 116.578 72.2864 111.888 72.2864H104.131V75.0242H106.332V87.5918H104.131V90.3128H113.028C118.136 90.3128 120.1 88.4291 120.1 85.3353C120.116 81.9566 117.337 81.2499 116.158 81.0922ZM109.741 75.1198H112.567C113.959 75.1198 115.398 75.6948 115.398 77.5269C115.398 79.0211 114.219 79.8855 112.859 79.8855H109.741V75.1198ZM113.197 87.4865H109.741V82.509H113.409C115.348 82.509 116.633 83.3966 116.633 84.9729C116.633 86.7268 115.529 87.4865 113.197 87.4865Z" fill="white"/>
<path d="M126.477 81.147H126.375V78.081H121.869V80.8046H123.544V87.5917H121.869V90.3127H128.993V87.5368H126.874V83.5037C127.127 82.7407 127.618 82.0792 128.276 81.6167C128.933 81.1541 129.721 80.9151 130.524 80.9345C131.004 80.9209 131.484 80.9926 131.939 81.147V77.999C131.806 77.999 131.254 77.8962 130.629 77.8962C127.189 77.8962 126.477 81.147 126.477 81.147Z" fill="white"/>
<path d="M136.435 71.1641C135.974 71.1641 135.523 71.301 135.14 71.5568C134.756 71.8133 134.458 72.1777 134.281 72.6034C134.104 73.0291 134.058 73.4981 134.148 73.9503C134.238 74.4025 134.46 74.8179 134.787 75.1442C135.113 75.4704 135.528 75.692 135.98 75.7824C136.433 75.8722 136.901 75.8257 137.327 75.6494C137.753 75.473 138.117 75.1745 138.374 74.7908C138.63 74.4077 138.767 73.9568 138.767 73.4955C138.767 72.8773 138.521 72.2843 138.084 71.8469C137.646 71.4095 137.053 71.1641 136.435 71.1641Z" fill="white"/>
<path d="M138.244 78.0811H133.238V80.8047H134.917V87.5917H133.238V90.3127H139.765V87.5917H138.244V78.0811Z" fill="white"/>
<path d="M153.274 70.772H148.112V73.4956H149.937V78.238C149.937 78.238 149.937 78.291 149.951 78.3452V79.3265C149.754 79.0391 148.81 77.8963 146.401 77.8963C143.335 77.8963 140.926 79.9926 140.926 84.2104C140.926 88.6137 143.262 90.4975 146.326 90.4975C149.234 90.4975 150.281 88.4012 150.281 88.4012H150.386V90.3127H154.917V87.5917H153.265L153.274 70.772ZM149.924 86.5419C149.581 87.1718 148.611 87.7991 147.46 87.7991C145.471 87.7991 144.211 86.5419 144.211 84.1833C144.211 81.7762 145.623 80.5973 147.405 80.5973C148.821 80.5973 149.556 81.1722 149.914 81.6193L149.924 86.5419Z" fill="white"/>
<path d="M165.482 80.0152H165.4C165.4 80.0152 164.329 77.8962 161.416 77.8962C158.353 77.8962 156.021 79.7826 156.021 84.1833C156.021 88.4011 158.432 90.4975 161.496 90.4975C164.115 90.4975 165.062 89.0581 165.083 89.0032H165.169V89.8611C165.169 89.9432 165.169 90.0252 165.169 90.1079V91.1299C165.169 93.776 163.73 94.9279 161.419 94.9279C158.54 94.9279 157.491 93.3516 157.491 93.3516L156.104 95.6876C156.104 95.6876 157.86 97.7406 161.555 97.7406C165.327 97.7406 168.365 95.6876 168.365 91.139V80.8046H170.044V78.081H165.482V80.0152ZM165.037 86.8042C164.64 87.2222 163.885 87.7991 162.493 87.7991C160.712 87.7991 159.325 86.6194 159.325 84.2104C159.325 81.8518 160.554 80.5972 162.548 80.5972C163.7 80.5972 164.667 81.2219 165.037 81.8518V86.8042Z" fill="white"/>
<path d="M182.444 83.348C182.444 80.8867 180.738 77.8982 176.912 77.8982C173.196 77.8982 170.598 79.97 170.598 84.1852C170.598 88.4011 173.221 90.5001 176.985 90.5001C180.681 90.5001 182.278 88.9806 182.278 88.9806L181.098 86.5167C181.098 86.5167 180.049 87.801 177.507 87.801C175.566 87.801 174.182 86.8888 173.919 84.9198H182.223C182.388 84.4133 182.463 83.881 182.444 83.348ZM173.929 82.9811C174.136 81.4364 175.238 80.3873 176.94 80.3873C178.201 80.3873 179.353 81.2245 179.401 82.9811H173.929Z" fill="white"/>
</g>
<defs>
<clipPath id="clip0_20_663">
<rect width="292" height="292" fill="white" transform="translate(-14 -77)"/>
</clipPath>
</defs>
</svg>